<?xml version="1.0" encoding="utf-8"?>
<!-- Generator: Adobe Illustrator 25.1.0, SVG Export Plug-In . SVG Version: 6.00 Build 0)  -->
<svg version="1.1" id="Layer_1" xmlns="http://www.w3.org/2000/svg" xmlns:xlink="http://www.w3.org/1999/xlink" x="0px" y="0px"
	 viewBox="0 0 844.3 214.4" style="enable-background:new 0 0 844.3 214.4;" xml:space="preserve">
<style type="text/css">
	.st0{fill:#303A2B;}
	.st1{font-family:'Ruddy-Bold';}
	.st2{font-size:121.56px;}
	.st3{letter-spacing:-1;}
	.st4{fill:#6E9887;}
	.st5{letter-spacing:-2;}
	.st6{font-family:'BasicSans-Regular';}
	.st7{font-size:65.29px;}
</style>
<text transform="matrix(1 0 0 1 90.91 168.21)" class="st0 st1 st2">a pla</text>
<text transform="matrix(1 0 0 1 375.97 168.21)" class="st0 st1 st2 st3">n</text>
<text transform="matrix(1 0 0 1 447.45 168.21)" class="st0 st1 st2">t </text>
<text transform="matrix(1 0 0 1 532.18 168.21)" class="st0 st1 st2 st3">k</text>
<text transform="matrix(1 0 0 1 605.24 168.21)" class="st0 st1 st2">iller</text>
<text transform="matrix(1 0 0 1 83.61 168.21)" class="st4 st1 st2">a pla</text>
<text transform="matrix(1 0 0 1 368.67 168.21)" class="st4 st1 st2 st5">n</text>
<text transform="matrix(1 0 0 1 440.15 168.21)" class="st4 st1 st2">t </text>
<text transform="matrix(1 0 0 1 524.88 168.21)" class="st4 st1 st2 st3">k</text>
<text transform="matrix(1 0 0 1 597.94 168.21)" class="st4 st1 st2">iller</text>
<text transform="matrix(0.9623 -0.2721 0.2721 0.9623 14.74 89.52)" class="st0 st6 st7 st5">[</text>
<text transform="matrix(0.9623 -0.2721 0.2721 0.9623 32.5805 84.475)" class="st0 st6 st7">n</text>
<text transform="matrix(0.9623 -0.2721 0.2721 0.9623 68.011 74.4558)" class="st0 st6 st7">o</text>
<text transform="matrix(0.9623 -0.2721 0.2721 0.9623 103.0663 64.5427)" class="st0 st6 st7 st3">t</text>
<text transform="matrix(0.9623 -0.2721 0.2721 0.9623 126.69 57.8624)" class="st0 st6 st7">]</text>
</svg>
