<svg id="Layer_1" data-name="Layer 1" xmlns="http://www.w3.org/2000/svg" xmlns:xlink="http://www.w3.org/1999/xlink" viewBox="0 0 1460.22 206.23"><defs><style>.cls-1{fill:none;}.cls-2{clip-path:url(#clip-path);}.cls-3,.cls-5{fill:#ba5526;}.cls-10,.cls-4{fill:#6e9887;}.cls-4,.cls-5,.cls-6,.cls-7{opacity:0.35;}.cls-6,.cls-9{fill:#e38a85;}.cls-7,.cls-8{fill:#a0b285;}</style><clipPath id="clip-path"><rect class="cls-1" x="-150.69" y="-2.34" width="1752.65" height="794.34"/></clipPath></defs><g class="cls-2"><circle class="cls-3" cx="726.99" cy="-31.07" r="107.82"/><path class="cls-3" d="M617.29,21.93,528.12,74.08l-12.65,7.4c-4.17,2.44-.4,8.92,3.78,6.48l89.17-52.15,12.65-7.4c4.17-2.44.4-8.92-3.78-6.48Z"/><path class="cls-3" d="M646.57,57.14,617.84,89c-3.23,3.57,2.06,8.89,5.3,5.3l28.73-31.82c3.23-3.58-2.06-8.9-5.3-5.31Z"/><path class="cls-3" d="M683.69,81.71l-47,92L630,186.74c-2.2,4.29,4.27,8.09,6.47,3.79l47-92,6.67-13c2.19-4.29-4.28-8.09-6.48-3.79Z"/><path class="cls-3" d="M723.7,91.71l-1.36,42.86c-.16,4.83,7.34,4.82,7.5,0l1.36-42.86c.15-4.82-7.35-4.82-7.5,0Z"/><path class="cls-3" d="M769.44,84.82l34.11,97.51,4.84,13.83c1.59,4.53,8.83,2.58,7.23-2l-34.1-97.51-4.84-13.83c-1.59-4.53-8.84-2.58-7.24,2Z"/><path class="cls-3" d="M808.66,65.07l25.1,34.76c2.8,3.87,9.31.13,6.48-3.79L815.13,61.28c-2.79-3.87-9.3-.14-6.47,3.79Z"/><path class="cls-3" d="M832.16,24.4l81.57,63.39,11.57,9c3.77,2.93,9.11-2.35,5.3-5.3L849,28.09l-11.57-9c-3.76-2.93-9.11,2.34-5.3,5.3Z"/><path class="cls-4" d="M522.83-11.3C511.71,24.26,513.31,59.57,462.69,80c-53,21.35-111.82-58.14-110-91.27,3.17-58.18,58.67-51,103.41-67.48C509.69-98.5,536-53.51,522.83-11.3Z"/><path class="cls-5" d="M1000.61-102c29.84,22.33,63.67,32.57,66.06,87.09,2.51,57.06-92,86.1-122.68,73.37-53.8-22.35-28.58-72.3-29.22-120C914-118.65,965.2-128.52,1000.61-102Z"/><path class="cls-6" d="M1128.91-47.94c33.84-15.61,58.95-40.48,108-16.62,51.37,25,31.88,121.94,6.1,142.82-45.28,36.67-77.19-9.3-119.41-31.44C1073.05,20.3,1088.75-29.42,1128.91-47.94Z"/><path class="cls-5" d="M211.13-87.78c33.84-15.61,58.95-40.48,108-16.62,51.37,25,31.89,121.94,6.1,142.82C280,75.09,248.07,29.12,205.85,7,155.27-19.54,171-69.26,211.13-87.78Z"/><path class="cls-7" d="M186.15,12.26C175,47.83,176.63,83.13,126,103.53,73,124.88,14.19,45.39,16,12.26c3.18-58.18,58.68-51,103.42-67.48C173-74.94,199.35-29.95,186.15,12.26Z"/><path class="cls-4" d="M1279,45.09c3.21-37.13-6-71.26,39.09-102.08,47.14-32.25,121.72,32.72,127.08,65.47,9.42,57.49-46.32,62.44-86.47,88.14C1310.6,127.42,1275.19,89.15,1279,45.09Z"/><path class="cls-8" d="M1058.73-25.7c12.83,5.72,26,11.51,37,20.46A70.06,70.06,0,0,1,1108.31,8c2.55,3.55,9.81,13.5,7.42,17.68-3,5.28-14.1.91-17.86-1.37-6.1-3.69-10.64-9.47-14.42-15.39-7.23-11.33-12.33-23.81-21.13-34.11-2.46-2.87-7.35.19-6.27,3.65a192.12,192.12,0,0,1,8.12,40c.31,3.46.53,6.94.65,10.41.1,2.9.91,7.3-.14,10.08-2.16,5.79-10.43,3.85-14.29,1.51-10.57-6.39-11.12-21.26-6.28-31.41s13.6-17.4,18.06-27.64l-6.86-2.89c-2.81,9.65-9.8,16.7-18,22.12-7,4.61-20,13.45-27.28,4.94-13.32-15.54,39.58-27.82,48-29.31,4.75-.84,2.74-8.07-2-7.23-14.84,2.64-30.48,7.16-43.55,14.89-9.39,5.55-16.7,17.37-7.74,26.95,9.58,10.24,23.2,4.26,33.23-1.78,11.17-6.72,20.88-15.76,24.61-28.59,1.16-4-5.12-6.86-6.85-2.89-5.94,13.67-19,22.93-21.49,38.25-2.15,13,2.87,27.48,15.76,32.74,5.38,2.19,11.68,2.3,16.75-.82,6.42-4,5.84-11.37,5.64-18a199.31,199.31,0,0,0-9.07-53.35L1057-19.89c11.11,13,16,30.12,27.64,42.8,5,5.48,11.47,10.08,18.82,11.72,5.78,1.3,14.62,1.21,18.87-3.77,4.55-5.32-.42-14.27-3.09-19.4a69.72,69.72,0,0,0-13.68-17.93c-12.25-11.74-27.75-18.88-43.06-25.7-4.37-1.95-8.19,4.51-3.79,6.47Z"/><path class="cls-9" d="M319.14-13.22c14.58-.72,29.49-1.49,43.81,2a67.85,67.85,0,0,1,17.71,6.94,52.71,52.71,0,0,1,7.84,5.4c2.79,2.36,6.26,4.63,3.3,8.19-3.44,4.14-11,4.81-15.88,4.38-7-.61-13.53-3.77-19.48-7.29C344.85-.44,334.68-9.22,322.16-14.45c-3.65-1.53-6,3.8-3.65,6.26a192.71,192.71,0,0,1,23.77,29.72,180.36,180.36,0,0,1,9.1,15.7c1.73,3.39,3.14,6.36-.1,9.4a11.9,11.9,0,0,1-6.93,2.94c-11.61,1.26-20.06-9.44-22.19-19.77-2.65-12.82,3.73-25.57,3-38.47l-7.37,1c2,10.65-2,20.77-7.42,29.77-4.1,6.75-11.66,19.18-21.35,14.36-17.32-8.62,22.28-41.74,29.45-47.13,3.82-2.86.08-9.38-3.78-6.48a152.67,152.67,0,0,0-30.29,30c-7,9.25-11.67,24.79,2.05,30.68,12.31,5.28,21.93-4.69,28.16-14.09,7.78-11.72,13-24.84,10.42-39-.77-4.15-7.6-3.21-7.37,1,.89,16.17-7.37,31.23-.6,47.12,5.1,12,17.32,21.18,30.8,18.1,5.29-1.21,10.6-4.88,12.44-10.17,2.44-7-3.27-14.73-6.6-20.51a200.32,200.32,0,0,0-29.91-39.36l-3.64,6.27c16.29,6.82,28.68,20.58,45.55,26.29,10.93,3.7,29.7,3.52,35-9.35,2.84-6.86-4.75-12.29-9.47-15.9a68.25,68.25,0,0,0-18.67-10c-17.13-6.12-35.58-5.45-53.46-4.57-4.81.23-4.84,7.73,0,7.5Z"/><path class="cls-10" d="M1275,.9c12.82,5.71,26,11.51,37,20.46a70,70,0,0,1,12.62,13.22c2.55,3.56,9.82,13.51,7.42,17.69-3,5.27-14.1.9-17.86-1.37-6.1-3.69-10.64-9.47-14.42-15.4-7.23-11.32-12.33-23.8-21.13-34.1-2.45-2.87-7.35.19-6.27,3.65a191.48,191.48,0,0,1,8.12,40q.46,5.19.65,10.41c.1,2.9.91,7.3-.13,10.08-2.16,5.79-10.43,3.84-14.3,1.51-10.57-6.39-11.11-21.26-6.27-31.41s13.6-17.4,18-27.65l-6.85-2.88c-2.82,9.64-9.8,16.7-18,22.12-7,4.61-20,13.44-27.28,4.94-13.31-15.54,39.58-27.82,48-29.31,4.74-.84,2.73-8.07-2-7.23-14.84,2.64-30.48,7.16-43.55,14.89-9.38,5.55-16.7,17.37-7.73,27,9.58,10.24,23.19,4.25,33.22-1.78,11.17-6.72,20.88-15.76,24.62-28.59,1.15-4-5.13-6.86-6.86-2.89-5.94,13.66-19,22.93-21.49,38.25-2.14,13,2.87,27.48,15.76,32.74,5.38,2.19,11.69,2.3,16.75-.82,6.42-3.95,5.84-11.37,5.65-18a199.71,199.71,0,0,0-9.07-53.35l-6.27,3.64c11.11,13,16,30.13,27.64,42.81,5,5.48,11.47,10.08,18.82,11.72,5.78,1.29,14.62,1.21,18.88-3.77,4.54-5.32-.43-14.27-3.09-19.4a70,70,0,0,0-13.69-17.93c-12.25-11.75-27.75-18.89-43.06-25.71-4.37-1.94-8.19,4.52-3.78,6.48Z"/><path class="cls-10" d="M141.86-9.55c8.25-11.92,16.57-24,27.47-33.69A64.92,64.92,0,0,1,187.71-55c4-1.64,16.73-6.6,17.9-.46,1.21,6.31-2.42,13.77-6.3,18.49-4.3,5.25-10.27,8.86-16.5,11.4-13.24,5.41-27.65,7-40.29,14-3.21,1.78-1.83,7.12,1.89,7A157.85,157.85,0,0,1,186.14-.65Q191.63.63,197,2.3c3,.93,6.9,1.57,8.21,4.8,2.27,5.62-.83,12.62-4.85,16.57-9.56,9.36-23.53,3.69-31.23-5.06S157.24-1.3,148.8-9.5l-4.54,5.89c9,6.65,13.34,17.54,16.11,28,2.36,8.86,8.13,28.35-3.41,33.35C139.83,65.16,142.25,1.2,142.91-6.82c.39-4.81-7.11-4.79-7.5,0-1.44,17.58-1.22,36,2.46,53.37,2.2,10.38,10.42,24.44,23.06,17.62,13.94-7.53,10.42-26.24,7.43-38.77C165.11,11.79,159.58-1.53,148-10.08c-3.46-2.57-7.54,3-4.54,5.88,11,10.68,15.3,26.8,28.69,35.27,11.84,7.5,27.41,6.55,36.12-5.16a24.18,24.18,0,0,0,4.76-18.13c-1.33-8-7-10.52-14.06-12.71a164.92,164.92,0,0,0-54.6-7.15l1.89,7c16-8.88,35.64-8.91,50.76-19.72a39.07,39.07,0,0,0,13.61-16.78c2.42-5.82,4.4-15.13.56-20.83s-13.88-3.28-19.42-1.83a63.45,63.45,0,0,0-21.22,10.41c-14.61,10.7-25,25.79-35.2,40.5-2.75,4,3.74,7.74,6.47,3.79Z"/><path class="cls-7" d="M546.44,19.17C531.27.42,511.91-12.1,518.28-44.2c6.68-33.59,69.09-32,86.14-18.71,29.92,23.43,7.19,47.51.72,75.29C597.39,45.66,564.43,41.43,546.44,19.17Z"/><path class="cls-4" d="M891.09-66c22.52,8.66,45.54,9.81,56.08,40.79,11,32.43-43.79,62.32-65.22,59.29-37.63-5.32-30-37.54-38.29-64.83C833.72-63.43,864.37-76.26,891.09-66Z"/></g></svg>